<svg xmlns="http://www.w3.org/2000/svg" width="64" height="64" viewBox="0 0 64 64" fill="none">
  <path d="M16 12c0-2.2 1.8-4 4-4h24c2.2 0 4 1.8 4 4v40c0 2.2-1.8 4-4 4H20c-2.2 0-4-1.8-4-4V12z" fill="#667eea" opacity="0.18"/>
  <path d="M20 12h24c1.1 0 2 .9 2 2v38c0 1.1-.9 2-2 2H20c-1.1 0-2-.9-2-2V14c0-1.1.9-2 2-2z" fill="#667eea"/>
  <path d="M24 22h16" stroke="#fff" stroke-width="3" stroke-linecap="round"/>
  <path d="M24 30h14" stroke="#fff" stroke-width="3" stroke-linecap="round" opacity="0.9"/>
  <path d="M24 38h10" stroke="#fff" stroke-width="3" stroke-linecap="round" opacity="0.8"/>
  <path d="M38 44l-3-3 2-2 3 3 7-7 2 2-9 9z" fill="#fff"/>
</svg>
